<svg xmlns="http://www.w3.org/2000/svg" viewBox="0 0 310 80" role="img" aria-labelledby="title">
  <title id="title">Truekin shield and wordmark in ink</title>
  <g transform="translate(4 8)">
    <path fill="#0a0a0a" fill-rule="evenodd" d="M32 2 58 10v22c0 14-12 24-26 30C18 56 6 46 6 32V10Zm0 6-20 6v17c0 11.5 9.5 20 20 25 10.5-5 20-13.5 20-25V14Z"/>
    <path fill="#0a0a0a" d="M19 19h22v4.5H19zm8 0h4.5v26H27zm8 3h4.5v23H35zm4.5 10 7.5-9-2.5-2-7.5 9zm0 0 7.5 12-2.5 2-7.5-12z"/>
  </g>
  <text x="84" y="59" fill="#0a0a0a" font-family="Anton, Impact, Haettenschweiler, 'Arial Narrow Bold', sans-serif" font-size="52" font-weight="900" letter-spacing="4">TRUEKIN</text>
</svg>
